<svg width="23" height="23" viewBox="0 0 23 23" fill="none" xmlns="http://www.w3.org/2000/svg">
<g clip-path="url(#clip0_1_730)">
<path d="M14.91 9.85212V7.74012L13.216 3.80212V0.370117H3.40401V3.80212L1.62201 7.74012V22.3701H21.378V9.85212H14.91ZM18.166 18.4321C17.7847 18.0948 17.352 17.9261 16.868 17.9261C16.384 17.9261 15.9513 18.0948 15.57 18.4321C15.2033 18.0948 14.778 17.9261 14.294 17.9261C14.1033 17.9261 13.8833 17.9628 13.634 18.0361V14.1421H20.102V18.0361C19.8527 17.9628 19.6327 17.9261 19.442 17.9261C18.958 17.9261 18.5327 18.0948 18.166 18.4321ZM20.102 12.8441H13.634V11.1501H20.102V12.8441ZM12.358 9.85212V18.5201H2.89801V8.53212H13.612V9.85212H12.358ZM13.282 7.23412H3.27201L4.46001 4.57212H12.138L13.282 7.23412ZM4.70201 1.66812H11.918V3.29612H4.70201V1.66812ZM2.89801 21.0721V19.8181H12.358V21.0721H2.89801ZM13.634 21.0721V19.8621C13.634 19.6861 13.7 19.5358 13.832 19.4111C13.964 19.2865 14.118 19.2241 14.294 19.2241C14.47 19.2241 14.6203 19.2865 14.745 19.4111C14.8697 19.5358 14.932 19.6861 14.932 19.8621V21.0721H13.634ZM16.23 21.0721V19.8621C16.23 19.6861 16.2923 19.5358 16.417 19.4111C16.5417 19.2865 16.692 19.2241 16.868 19.2241C17.044 19.2241 17.1943 19.2865 17.319 19.4111C17.4437 19.5358 17.506 19.6861 17.506 19.8621V21.0721H16.23ZM20.102 21.0721H18.804V19.8621C18.804 19.6861 18.8663 19.5358 18.991 19.4111C19.1157 19.2865 19.266 19.2241 19.442 19.2241C19.618 19.2241 19.772 19.2865 19.904 19.4111C20.036 19.5358 20.102 19.6861 20.102 19.8621V21.0721Z" fill="#202435"/>
</g>
<defs>
<clipPath id="clip0_1_730">
<rect width="22" height="22" fill="white" transform="matrix(1 0 0 -1 0.5 22.3701)"/>
</clipPath>
</defs>
</svg>
