<svg width="7" height="17" viewBox="0 0 7 17" fill="none" xmlns="http://www.w3.org/2000/svg">
<g clip-path="url(#clip0_1_901)">
<path d="M6.82975 7.73454L4.34047 10.116C4.21282 10.2435 4.07098 10.3073 3.91496 10.3073C3.75893 10.3073 3.61709 10.2435 3.48944 10.116L1.00016 7.73454C0.886692 7.62114 0.829956 7.47584 0.829956 7.29865C0.829956 7.12146 0.886692 6.97617 1.00016 6.86277C1.26966 6.59344 1.54624 6.59344 1.82992 6.86277L3.91496 8.86146L5.99999 6.86277C6.28367 6.59344 6.56025 6.59344 6.82975 6.86277C6.94322 6.97617 6.99996 7.12146 6.99996 7.29865C6.99996 7.47584 6.94322 7.62114 6.82975 7.73454Z" fill="#3E445A"/>
</g>
<defs>
<clipPath id="clip0_1_901">
<rect width="6.17" height="16.18" fill="white" transform="matrix(1 0 0 -1 0.829956 16.59)"/>
</clipPath>
</defs>
</svg>
